<mxfile host="www.draw.io" modified="2020-01-08T06:33:44.447Z" agent="Mozilla/5.0 (X11; Linux x86_64) AppleWebKit/537.36 (KHTML, like Gecko) Chrome/79.0.3945.88 Safari/537.36" etag="wms-EOPbeLp_D_LQFqmE" version="12.4.9" type="github">
  <diagram id="DesQzz0FUMzqTQDBwzYv" name="Page-1">
    <mxGraphModel dx="1102" dy="626" grid="0" gridSize="10" guides="1" tooltips="1" connect="1" arrows="1" fold="1" page="1" pageScale="1" pageWidth="827" pageHeight="1169" math="1" shadow="0">
      <root>
        <mxCell id="0"/>
        <mxCell id="1" parent="0"/>
        <mxCell id="a4A_HweRNCj4ITvUPTM8-2" value="" style="ellipse;whiteSpace=wrap;html=1;aspect=fixed;strokeWidth=3;fillColor=#e1d5e7;strokeColor=#9673a6;" vertex="1" parent="1">
          <mxGeometry x="197" y="138" width="432" height="432" as="geometry"/>
        </mxCell>
        <mxCell id="a4A_HweRNCj4ITvUPTM8-3" value="" style="ellipse;whiteSpace=wrap;html=1;aspect=fixed;strokeWidth=3;fillColor=#f8cecc;strokeColor=#b85450;" vertex="1" parent="1">
          <mxGeometry x="256.5" y="200.5" width="307" height="307" as="geometry"/>
        </mxCell>
        <mxCell id="a4A_HweRNCj4ITvUPTM8-4" value="" style="ellipse;whiteSpace=wrap;html=1;aspect=fixed;strokeWidth=3;fillColor=#d5e8d4;strokeColor=#82b366;" vertex="1" parent="1">
          <mxGeometry x="318" y="262" width="184" height="184" as="geometry"/>
        </mxCell>
        <mxCell id="a4A_HweRNCj4ITvUPTM8-8" value="" style="endArrow=none;html=1;strokeWidth=3;" edge="1" parent="1">
          <mxGeometry width="50" height="50" relative="1" as="geometry">
            <mxPoint x="451" y="564" as="sourcePoint"/>
            <mxPoint x="207" y="239" as="targetPoint"/>
          </mxGeometry>
        </mxCell>
        <mxCell id="a4A_HweRNCj4ITvUPTM8-9" value="&lt;font style=&quot;font-size: 30px&quot;&gt;W&lt;/font&gt;" style="text;html=1;align=center;verticalAlign=middle;resizable=0;points=[];autosize=1;" vertex="1" parent="1">
          <mxGeometry x="370" y="521" width="38" height="24" as="geometry"/>
        </mxCell>
        <mxCell id="a4A_HweRNCj4ITvUPTM8-10" value="&lt;b&gt;&lt;font style=&quot;font-size: 17px&quot;&gt;CVENN&lt;/font&gt;&lt;/b&gt;" style="text;html=1;align=center;verticalAlign=middle;resizable=0;points=[];autosize=1;" vertex="1" parent="1">
          <mxGeometry x="375" y="294" width="70" height="19" as="geometry"/>
        </mxCell>
      </root>
    </mxGraphModel>
  </diagram>
</mxfile>
